<mxfile host="app.diagrams.net" modified="2024-01-25T18:16:58.522Z" agent="Mozilla/5.0 (Windows NT 10.0; Win64; x64) AppleWebKit/537.36 (KHTML, like Gecko) Chrome/120.0.0.0 Safari/537.36" etag="s1L4br-IMFODPfRNK50x" version="23.0.1" type="device">
  <diagram id="R2lEEEUBdFMjLlhIrx00" name="Page-1">
    <mxGraphModel dx="2524" dy="780" grid="1" gridSize="10" guides="1" tooltips="1" connect="1" arrows="1" fold="1" page="1" pageScale="1" pageWidth="850" pageHeight="1100" math="0" shadow="0" extFonts="Permanent Marker^https://fonts.googleapis.com/css?family=Permanent+Marker">
      <root>
        <mxCell id="0" />
        <mxCell id="1" parent="0" />
        <mxCell id="VXjHwAnfuh55Wv1e9_JL-1" value="Centro" style="whiteSpace=wrap;html=1;align=center;fillColor=#97D077;" vertex="1" parent="1">
          <mxGeometry x="1100" y="275" width="100" height="40" as="geometry" />
        </mxCell>
        <mxCell id="VXjHwAnfuh55Wv1e9_JL-2" value="Privado" style="whiteSpace=wrap;html=1;align=center;fillColor=#97D077;" vertex="1" parent="1">
          <mxGeometry x="990" y="395" width="100" height="40" as="geometry" />
        </mxCell>
        <mxCell id="VXjHwAnfuh55Wv1e9_JL-3" value="Público" style="whiteSpace=wrap;html=1;align=center;fillColor=#97D077;" vertex="1" parent="1">
          <mxGeometry x="1220" y="395" width="100" height="40" as="geometry" />
        </mxCell>
        <mxCell id="VXjHwAnfuh55Wv1e9_JL-4" value="Profesor" style="whiteSpace=wrap;html=1;align=center;fillColor=#97D077;" vertex="1" parent="1">
          <mxGeometry x="580" y="275" width="100" height="40" as="geometry" />
        </mxCell>
        <mxCell id="VXjHwAnfuh55Wv1e9_JL-5" value="Imparte en" style="shape=rhombus;perimeter=rhombusPerimeter;whiteSpace=wrap;html=1;align=center;fillColor=#EA6B66;" vertex="1" parent="1">
          <mxGeometry x="830" y="265" width="120" height="60" as="geometry" />
        </mxCell>
        <mxCell id="VXjHwAnfuh55Wv1e9_JL-6" value="" style="triangle;whiteSpace=wrap;html=1;rotation=90;fillColor=#7EA6E0;" vertex="1" parent="1">
          <mxGeometry x="1130" y="335" width="40" height="60" as="geometry" />
        </mxCell>
        <mxCell id="VXjHwAnfuh55Wv1e9_JL-7" value="N:M" style="text;html=1;strokeColor=none;fillColor=none;align=center;verticalAlign=middle;whiteSpace=wrap;rounded=0;" vertex="1" parent="1">
          <mxGeometry x="860" y="225" width="60" height="30" as="geometry" />
        </mxCell>
        <mxCell id="VXjHwAnfuh55Wv1e9_JL-8" value="Nombre" style="ellipse;whiteSpace=wrap;html=1;align=center;fillColor=#FFD966;" vertex="1" parent="1">
          <mxGeometry x="510" y="195" width="100" height="40" as="geometry" />
        </mxCell>
        <mxCell id="VXjHwAnfuh55Wv1e9_JL-9" value="Especialidad" style="ellipse;whiteSpace=wrap;html=1;align=center;fillColor=#FFD966;" vertex="1" parent="1">
          <mxGeometry x="650" y="345" width="100" height="40" as="geometry" />
        </mxCell>
        <mxCell id="VXjHwAnfuh55Wv1e9_JL-10" value="&lt;u&gt;Email&lt;/u&gt;" style="ellipse;whiteSpace=wrap;html=1;align=center;fillColor=#FFD966;" vertex="1" parent="1">
          <mxGeometry x="510" y="345" width="100" height="40" as="geometry" />
        </mxCell>
        <mxCell id="VXjHwAnfuh55Wv1e9_JL-11" value="Apellidos" style="ellipse;whiteSpace=wrap;html=1;align=center;fillColor=#FFD966;" vertex="1" parent="1">
          <mxGeometry x="650" y="195" width="100" height="40" as="geometry" />
        </mxCell>
        <mxCell id="VXjHwAnfuh55Wv1e9_JL-12" value="Tipo" style="ellipse;whiteSpace=wrap;html=1;align=center;fillColor=#FFD966;" vertex="1" parent="1">
          <mxGeometry x="1230" y="305" width="100" height="40" as="geometry" />
        </mxCell>
        <mxCell id="VXjHwAnfuh55Wv1e9_JL-13" value="Materia" style="whiteSpace=wrap;html=1;align=center;fillColor=#97D077;" vertex="1" parent="1">
          <mxGeometry x="840" y="605" width="100" height="40" as="geometry" />
        </mxCell>
        <mxCell id="VXjHwAnfuh55Wv1e9_JL-14" value="Imparte" style="shape=rhombus;perimeter=rhombusPerimeter;whiteSpace=wrap;html=1;align=center;fillColor=#EA6B66;" vertex="1" parent="1">
          <mxGeometry x="570" y="435" width="120" height="60" as="geometry" />
        </mxCell>
        <mxCell id="VXjHwAnfuh55Wv1e9_JL-15" value="Tiene" style="shape=rhombus;perimeter=rhombusPerimeter;whiteSpace=wrap;html=1;align=center;fillColor=#EA6B66;" vertex="1" parent="1">
          <mxGeometry x="1090" y="505" width="120" height="60" as="geometry" />
        </mxCell>
        <mxCell id="VXjHwAnfuh55Wv1e9_JL-16" value="&lt;u&gt;Nombre&lt;/u&gt;" style="ellipse;whiteSpace=wrap;html=1;align=center;fillColor=#FFD966;" vertex="1" parent="1">
          <mxGeometry x="960" y="175" width="100" height="40" as="geometry" />
        </mxCell>
        <mxCell id="VXjHwAnfuh55Wv1e9_JL-17" value="Presupuesto anual" style="ellipse;whiteSpace=wrap;html=1;align=center;fillColor=#FFD966;" vertex="1" parent="1">
          <mxGeometry x="1230" y="175" width="100" height="40" as="geometry" />
        </mxCell>
        <mxCell id="VXjHwAnfuh55Wv1e9_JL-18" value="Nº de alumnos" style="ellipse;whiteSpace=wrap;html=1;align=center;fillColor=#FFD966;" vertex="1" parent="1">
          <mxGeometry x="1100" y="175" width="100" height="40" as="geometry" />
        </mxCell>
        <mxCell id="VXjHwAnfuh55Wv1e9_JL-19" value="Presupuesto" style="ellipse;whiteSpace=wrap;html=1;align=center;fillColor=#FFD966;" vertex="1" parent="1">
          <mxGeometry x="1400" y="395" width="100" height="40" as="geometry" />
        </mxCell>
        <mxCell id="VXjHwAnfuh55Wv1e9_JL-20" value="Servicios" style="ellipse;whiteSpace=wrap;html=1;align=center;fillColor=#FFD966;" vertex="1" parent="1">
          <mxGeometry x="1350" y="455" width="100" height="40" as="geometry" />
        </mxCell>
        <mxCell id="VXjHwAnfuh55Wv1e9_JL-21" value="Organización" style="ellipse;whiteSpace=wrap;html=1;align=center;fillColor=#FFD966;" vertex="1" parent="1">
          <mxGeometry x="825" y="395" width="100" height="40" as="geometry" />
        </mxCell>
        <mxCell id="VXjHwAnfuh55Wv1e9_JL-22" value="Cuota" style="ellipse;whiteSpace=wrap;html=1;align=center;fillColor=#FFD966;" vertex="1" parent="1">
          <mxGeometry x="870" y="455" width="100" height="40" as="geometry" />
        </mxCell>
        <mxCell id="VXjHwAnfuh55Wv1e9_JL-23" value="" style="endArrow=none;html=1;rounded=0;exitX=1;exitY=0.5;exitDx=0;exitDy=0;entryX=0;entryY=0.5;entryDx=0;entryDy=0;" edge="1" parent="1" source="VXjHwAnfuh55Wv1e9_JL-4" target="VXjHwAnfuh55Wv1e9_JL-5">
          <mxGeometry width="50" height="50" relative="1" as="geometry">
            <mxPoint x="900" y="455" as="sourcePoint" />
            <mxPoint x="950" y="405" as="targetPoint" />
          </mxGeometry>
        </mxCell>
        <mxCell id="VXjHwAnfuh55Wv1e9_JL-24" value="" style="endArrow=none;html=1;rounded=0;exitX=1;exitY=0.5;exitDx=0;exitDy=0;entryX=0;entryY=0.5;entryDx=0;entryDy=0;" edge="1" parent="1">
          <mxGeometry width="50" height="50" relative="1" as="geometry">
            <mxPoint x="950" y="294.5" as="sourcePoint" />
            <mxPoint x="1100" y="294.5" as="targetPoint" />
          </mxGeometry>
        </mxCell>
        <mxCell id="VXjHwAnfuh55Wv1e9_JL-25" value="" style="endArrow=none;html=1;rounded=0;entryX=0.25;entryY=0;entryDx=0;entryDy=0;exitX=0.5;exitY=1;exitDx=0;exitDy=0;" edge="1" parent="1" source="VXjHwAnfuh55Wv1e9_JL-8" target="VXjHwAnfuh55Wv1e9_JL-4">
          <mxGeometry width="50" height="50" relative="1" as="geometry">
            <mxPoint x="900" y="455" as="sourcePoint" />
            <mxPoint x="950" y="405" as="targetPoint" />
          </mxGeometry>
        </mxCell>
        <mxCell id="VXjHwAnfuh55Wv1e9_JL-26" value="" style="endArrow=none;html=1;rounded=0;entryX=0.75;entryY=0;entryDx=0;entryDy=0;exitX=0.5;exitY=1;exitDx=0;exitDy=0;" edge="1" parent="1" source="VXjHwAnfuh55Wv1e9_JL-11" target="VXjHwAnfuh55Wv1e9_JL-4">
          <mxGeometry width="50" height="50" relative="1" as="geometry">
            <mxPoint x="620" y="245" as="sourcePoint" />
            <mxPoint x="665" y="285" as="targetPoint" />
          </mxGeometry>
        </mxCell>
        <mxCell id="VXjHwAnfuh55Wv1e9_JL-27" value="" style="endArrow=none;html=1;rounded=0;entryX=0.5;entryY=0;entryDx=0;entryDy=0;exitX=0.75;exitY=1;exitDx=0;exitDy=0;" edge="1" parent="1" source="VXjHwAnfuh55Wv1e9_JL-4" target="VXjHwAnfuh55Wv1e9_JL-9">
          <mxGeometry width="50" height="50" relative="1" as="geometry">
            <mxPoint x="710" y="245" as="sourcePoint" />
            <mxPoint x="665" y="285" as="targetPoint" />
          </mxGeometry>
        </mxCell>
        <mxCell id="VXjHwAnfuh55Wv1e9_JL-28" value="" style="endArrow=none;html=1;rounded=0;entryX=0.25;entryY=1;entryDx=0;entryDy=0;exitX=0.5;exitY=0;exitDx=0;exitDy=0;" edge="1" parent="1" source="VXjHwAnfuh55Wv1e9_JL-10" target="VXjHwAnfuh55Wv1e9_JL-4">
          <mxGeometry width="50" height="50" relative="1" as="geometry">
            <mxPoint x="720" y="255" as="sourcePoint" />
            <mxPoint x="675" y="295" as="targetPoint" />
          </mxGeometry>
        </mxCell>
        <mxCell id="VXjHwAnfuh55Wv1e9_JL-29" value="" style="endArrow=none;html=1;rounded=0;entryX=0;entryY=0;entryDx=0;entryDy=0;exitX=1;exitY=1;exitDx=0;exitDy=0;" edge="1" parent="1" source="VXjHwAnfuh55Wv1e9_JL-16" target="VXjHwAnfuh55Wv1e9_JL-1">
          <mxGeometry width="50" height="50" relative="1" as="geometry">
            <mxPoint x="900" y="455" as="sourcePoint" />
            <mxPoint x="950" y="405" as="targetPoint" />
          </mxGeometry>
        </mxCell>
        <mxCell id="VXjHwAnfuh55Wv1e9_JL-30" value="" style="endArrow=none;html=1;rounded=0;entryX=0.5;entryY=0;entryDx=0;entryDy=0;exitX=0.5;exitY=1;exitDx=0;exitDy=0;" edge="1" parent="1" source="VXjHwAnfuh55Wv1e9_JL-18" target="VXjHwAnfuh55Wv1e9_JL-1">
          <mxGeometry width="50" height="50" relative="1" as="geometry">
            <mxPoint x="1055" y="219" as="sourcePoint" />
            <mxPoint x="1110" y="285" as="targetPoint" />
          </mxGeometry>
        </mxCell>
        <mxCell id="VXjHwAnfuh55Wv1e9_JL-31" value="" style="endArrow=none;html=1;rounded=0;entryX=1;entryY=0;entryDx=0;entryDy=0;exitX=0.5;exitY=1;exitDx=0;exitDy=0;" edge="1" parent="1" source="VXjHwAnfuh55Wv1e9_JL-17" target="VXjHwAnfuh55Wv1e9_JL-1">
          <mxGeometry width="50" height="50" relative="1" as="geometry">
            <mxPoint x="1065" y="229" as="sourcePoint" />
            <mxPoint x="1120" y="295" as="targetPoint" />
          </mxGeometry>
        </mxCell>
        <mxCell id="VXjHwAnfuh55Wv1e9_JL-32" value="" style="endArrow=none;html=1;rounded=0;entryX=0.5;entryY=1;entryDx=0;entryDy=0;exitX=0;exitY=0.5;exitDx=0;exitDy=0;" edge="1" parent="1" source="VXjHwAnfuh55Wv1e9_JL-6" target="VXjHwAnfuh55Wv1e9_JL-1">
          <mxGeometry width="50" height="50" relative="1" as="geometry">
            <mxPoint x="1075" y="239" as="sourcePoint" />
            <mxPoint x="1130" y="305" as="targetPoint" />
          </mxGeometry>
        </mxCell>
        <mxCell id="VXjHwAnfuh55Wv1e9_JL-33" value="" style="endArrow=none;html=1;rounded=0;entryX=0.5;entryY=0;entryDx=0;entryDy=0;exitX=0.5;exitY=1;exitDx=0;exitDy=0;" edge="1" parent="1" source="VXjHwAnfuh55Wv1e9_JL-6" target="VXjHwAnfuh55Wv1e9_JL-2">
          <mxGeometry width="50" height="50" relative="1" as="geometry">
            <mxPoint x="1095" y="259" as="sourcePoint" />
            <mxPoint x="1150" y="325" as="targetPoint" />
            <Array as="points">
              <mxPoint x="1040" y="365" />
            </Array>
          </mxGeometry>
        </mxCell>
        <mxCell id="VXjHwAnfuh55Wv1e9_JL-34" value="" style="endArrow=none;html=1;rounded=0;entryX=0.5;entryY=0;entryDx=0;entryDy=0;exitX=0.5;exitY=0;exitDx=0;exitDy=0;" edge="1" parent="1" source="VXjHwAnfuh55Wv1e9_JL-6" target="VXjHwAnfuh55Wv1e9_JL-3">
          <mxGeometry width="50" height="50" relative="1" as="geometry">
            <mxPoint x="1200" y="315" as="sourcePoint" />
            <mxPoint x="1255" y="381" as="targetPoint" />
            <Array as="points">
              <mxPoint x="1270" y="365" />
            </Array>
          </mxGeometry>
        </mxCell>
        <mxCell id="VXjHwAnfuh55Wv1e9_JL-35" value="" style="endArrow=none;html=1;rounded=0;entryX=1;entryY=0.5;entryDx=0;entryDy=0;exitX=0;exitY=0.5;exitDx=0;exitDy=0;" edge="1" parent="1" source="VXjHwAnfuh55Wv1e9_JL-19" target="VXjHwAnfuh55Wv1e9_JL-3">
          <mxGeometry width="50" height="50" relative="1" as="geometry">
            <mxPoint x="900" y="455" as="sourcePoint" />
            <mxPoint x="950" y="405" as="targetPoint" />
          </mxGeometry>
        </mxCell>
        <mxCell id="VXjHwAnfuh55Wv1e9_JL-36" value="" style="endArrow=none;html=1;rounded=0;entryX=1;entryY=1;entryDx=0;entryDy=0;exitX=0.5;exitY=0;exitDx=0;exitDy=0;" edge="1" parent="1" source="VXjHwAnfuh55Wv1e9_JL-20" target="VXjHwAnfuh55Wv1e9_JL-3">
          <mxGeometry width="50" height="50" relative="1" as="geometry">
            <mxPoint x="900" y="455" as="sourcePoint" />
            <mxPoint x="950" y="405" as="targetPoint" />
          </mxGeometry>
        </mxCell>
        <mxCell id="VXjHwAnfuh55Wv1e9_JL-37" value="" style="endArrow=none;html=1;rounded=0;entryX=0;entryY=0.5;entryDx=0;entryDy=0;exitX=1;exitY=0.5;exitDx=0;exitDy=0;" edge="1" parent="1" source="VXjHwAnfuh55Wv1e9_JL-21" target="VXjHwAnfuh55Wv1e9_JL-2">
          <mxGeometry width="50" height="50" relative="1" as="geometry">
            <mxPoint x="900" y="455" as="sourcePoint" />
            <mxPoint x="950" y="405" as="targetPoint" />
          </mxGeometry>
        </mxCell>
        <mxCell id="VXjHwAnfuh55Wv1e9_JL-38" value="" style="endArrow=none;html=1;rounded=0;entryX=0;entryY=1;entryDx=0;entryDy=0;exitX=0.5;exitY=0;exitDx=0;exitDy=0;" edge="1" parent="1" source="VXjHwAnfuh55Wv1e9_JL-22" target="VXjHwAnfuh55Wv1e9_JL-2">
          <mxGeometry width="50" height="50" relative="1" as="geometry">
            <mxPoint x="900" y="455" as="sourcePoint" />
            <mxPoint x="950" y="405" as="targetPoint" />
          </mxGeometry>
        </mxCell>
        <mxCell id="VXjHwAnfuh55Wv1e9_JL-39" value="" style="endArrow=none;html=1;rounded=0;entryX=0.5;entryY=1;entryDx=0;entryDy=0;exitX=1;exitY=0.5;exitDx=0;exitDy=0;" edge="1" parent="1" source="VXjHwAnfuh55Wv1e9_JL-13" target="VXjHwAnfuh55Wv1e9_JL-15">
          <mxGeometry width="50" height="50" relative="1" as="geometry">
            <mxPoint x="900" y="455" as="sourcePoint" />
            <mxPoint x="950" y="405" as="targetPoint" />
            <Array as="points">
              <mxPoint x="1150" y="625" />
            </Array>
          </mxGeometry>
        </mxCell>
        <mxCell id="VXjHwAnfuh55Wv1e9_JL-40" value="" style="endArrow=none;html=1;rounded=0;entryX=0.5;entryY=1;entryDx=0;entryDy=0;exitX=0;exitY=0.5;exitDx=0;exitDy=0;" edge="1" parent="1" source="VXjHwAnfuh55Wv1e9_JL-13" target="VXjHwAnfuh55Wv1e9_JL-14">
          <mxGeometry width="50" height="50" relative="1" as="geometry">
            <mxPoint x="900" y="455" as="sourcePoint" />
            <mxPoint x="950" y="405" as="targetPoint" />
            <Array as="points">
              <mxPoint x="630" y="625" />
            </Array>
          </mxGeometry>
        </mxCell>
        <mxCell id="VXjHwAnfuh55Wv1e9_JL-41" value="" style="endArrow=none;html=1;rounded=0;entryX=0.5;entryY=1;entryDx=0;entryDy=0;" edge="1" parent="1" source="VXjHwAnfuh55Wv1e9_JL-14" target="VXjHwAnfuh55Wv1e9_JL-4">
          <mxGeometry width="50" height="50" relative="1" as="geometry">
            <mxPoint x="900" y="455" as="sourcePoint" />
            <mxPoint x="950" y="405" as="targetPoint" />
          </mxGeometry>
        </mxCell>
        <mxCell id="VXjHwAnfuh55Wv1e9_JL-42" value="" style="endArrow=none;html=1;rounded=0;entryX=0.5;entryY=1;entryDx=0;entryDy=0;exitX=0;exitY=0.5;exitDx=0;exitDy=0;" edge="1" parent="1" source="VXjHwAnfuh55Wv1e9_JL-15" target="VXjHwAnfuh55Wv1e9_JL-2">
          <mxGeometry width="50" height="50" relative="1" as="geometry">
            <mxPoint x="900" y="455" as="sourcePoint" />
            <mxPoint x="950" y="405" as="targetPoint" />
            <Array as="points">
              <mxPoint x="1040" y="535" />
            </Array>
          </mxGeometry>
        </mxCell>
        <mxCell id="VXjHwAnfuh55Wv1e9_JL-43" value="" style="endArrow=none;html=1;rounded=0;entryX=0.5;entryY=1;entryDx=0;entryDy=0;exitX=1;exitY=0.5;exitDx=0;exitDy=0;" edge="1" parent="1" source="VXjHwAnfuh55Wv1e9_JL-15" target="VXjHwAnfuh55Wv1e9_JL-3">
          <mxGeometry width="50" height="50" relative="1" as="geometry">
            <mxPoint x="900" y="455" as="sourcePoint" />
            <mxPoint x="950" y="405" as="targetPoint" />
            <Array as="points">
              <mxPoint x="1270" y="535" />
            </Array>
          </mxGeometry>
        </mxCell>
        <mxCell id="VXjHwAnfuh55Wv1e9_JL-44" value="(1,N)" style="text;html=1;strokeColor=none;fillColor=none;align=center;verticalAlign=middle;whiteSpace=wrap;rounded=0;" vertex="1" parent="1">
          <mxGeometry x="680" y="265" width="60" height="30" as="geometry" />
        </mxCell>
        <mxCell id="VXjHwAnfuh55Wv1e9_JL-45" value="(1,M)" style="text;html=1;strokeColor=none;fillColor=none;align=center;verticalAlign=middle;whiteSpace=wrap;rounded=0;" vertex="1" parent="1">
          <mxGeometry x="1030" y="265" width="60" height="30" as="geometry" />
        </mxCell>
        <mxCell id="VXjHwAnfuh55Wv1e9_JL-46" value="N:M" style="text;html=1;strokeColor=none;fillColor=none;align=center;verticalAlign=middle;whiteSpace=wrap;rounded=0;" vertex="1" parent="1">
          <mxGeometry x="690" y="450" width="60" height="30" as="geometry" />
        </mxCell>
        <mxCell id="VXjHwAnfuh55Wv1e9_JL-47" value="N:M" style="text;html=1;strokeColor=none;fillColor=none;align=center;verticalAlign=middle;whiteSpace=wrap;rounded=0;" vertex="1" parent="1">
          <mxGeometry x="1120" y="475" width="60" height="30" as="geometry" />
        </mxCell>
        <mxCell id="VXjHwAnfuh55Wv1e9_JL-48" value="(1,N)" style="text;html=1;strokeColor=none;fillColor=none;align=center;verticalAlign=middle;whiteSpace=wrap;rounded=0;" vertex="1" parent="1">
          <mxGeometry x="620" y="315" width="60" height="30" as="geometry" />
        </mxCell>
        <mxCell id="VXjHwAnfuh55Wv1e9_JL-49" value="(1,M)" style="text;html=1;strokeColor=none;fillColor=none;align=center;verticalAlign=middle;whiteSpace=wrap;rounded=0;" vertex="1" parent="1">
          <mxGeometry x="780" y="595" width="60" height="30" as="geometry" />
        </mxCell>
        <mxCell id="VXjHwAnfuh55Wv1e9_JL-50" value="(1,M)" style="text;html=1;strokeColor=none;fillColor=none;align=center;verticalAlign=middle;whiteSpace=wrap;rounded=0;" vertex="1" parent="1">
          <mxGeometry x="1030" y="435" width="60" height="30" as="geometry" />
        </mxCell>
        <mxCell id="VXjHwAnfuh55Wv1e9_JL-51" value="(1,M)" style="text;html=1;strokeColor=none;fillColor=none;align=center;verticalAlign=middle;whiteSpace=wrap;rounded=0;" vertex="1" parent="1">
          <mxGeometry x="940" y="595" width="60" height="30" as="geometry" />
        </mxCell>
        <mxCell id="VXjHwAnfuh55Wv1e9_JL-52" value="(1,M)" style="text;html=1;strokeColor=none;fillColor=none;align=center;verticalAlign=middle;whiteSpace=wrap;rounded=0;" vertex="1" parent="1">
          <mxGeometry x="1270" y="435" width="60" height="30" as="geometry" />
        </mxCell>
        <mxCell id="VXjHwAnfuh55Wv1e9_JL-53" value="" style="rounded=0;whiteSpace=wrap;html=1;fillColor=none;strokeColor=#000000;" vertex="1" parent="1">
          <mxGeometry x="850" y="615" width="80" height="20" as="geometry" />
        </mxCell>
        <mxCell id="VXjHwAnfuh55Wv1e9_JL-54" value="" style="endArrow=none;html=1;rounded=0;exitX=0.05;exitY=0.033;exitDx=0;exitDy=0;exitPerimeter=0;entryX=0;entryY=0.5;entryDx=0;entryDy=0;" edge="1" parent="1" source="VXjHwAnfuh55Wv1e9_JL-6" target="VXjHwAnfuh55Wv1e9_JL-12">
          <mxGeometry width="50" height="50" relative="1" as="geometry">
            <mxPoint x="1160" y="355" as="sourcePoint" />
            <mxPoint x="1230" y="325" as="targetPoint" />
          </mxGeometry>
        </mxCell>
        <mxCell id="VXjHwAnfuh55Wv1e9_JL-55" value="&lt;u&gt;CódMateria&lt;/u&gt;" style="ellipse;whiteSpace=wrap;html=1;align=center;fillColor=#FFD966;" vertex="1" parent="1">
          <mxGeometry x="840" y="685" width="100" height="40" as="geometry" />
        </mxCell>
        <mxCell id="VXjHwAnfuh55Wv1e9_JL-56" value="" style="endArrow=none;html=1;rounded=0;entryX=0.5;entryY=1;entryDx=0;entryDy=0;exitX=0.5;exitY=0;exitDx=0;exitDy=0;" edge="1" parent="1" source="VXjHwAnfuh55Wv1e9_JL-55" target="VXjHwAnfuh55Wv1e9_JL-13">
          <mxGeometry width="50" height="50" relative="1" as="geometry">
            <mxPoint x="950" y="455" as="sourcePoint" />
            <mxPoint x="1000" y="405" as="targetPoint" />
          </mxGeometry>
        </mxCell>
        <mxCell id="VXjHwAnfuh55Wv1e9_JL-57" value="" style="rounded=0;whiteSpace=wrap;html=1;fillColor=#ffe6cc;strokeColor=#d79b00;" vertex="1" parent="1">
          <mxGeometry x="-350" y="145" width="630" height="785" as="geometry" />
        </mxCell>
        <mxCell id="VXjHwAnfuh55Wv1e9_JL-58" value="PROFESOR(&lt;font color=&quot;#ff1919&quot;&gt;&lt;u&gt;codProfesor, &lt;/u&gt;&lt;/font&gt;nombre, apellidos, especialidad, &lt;b&gt;email&lt;/b&gt;)" style="text;html=1;strokeColor=none;fillColor=none;align=center;verticalAlign=middle;whiteSpace=wrap;rounded=0;" vertex="1" parent="1">
          <mxGeometry x="-350" y="165" width="630" height="30" as="geometry" />
        </mxCell>
        <mxCell id="VXjHwAnfuh55Wv1e9_JL-59" value="IMPARTE(&lt;font color=&quot;#ff1919&quot;&gt;&lt;i&gt;&lt;u&gt;codProfesor, codMateria&lt;/u&gt;&lt;/i&gt;&lt;/font&gt;)" style="text;html=1;strokeColor=none;fillColor=none;align=center;verticalAlign=middle;whiteSpace=wrap;rounded=0;" vertex="1" parent="1">
          <mxGeometry x="-360" y="270" width="630" height="30" as="geometry" />
        </mxCell>
        <mxCell id="VXjHwAnfuh55Wv1e9_JL-61" value="IMPARTE_EN(&lt;font color=&quot;#ff1919&quot;&gt;&lt;u&gt;&lt;i&gt;codProfesor&lt;/i&gt;,&lt;i&gt; nombreCentro&lt;/i&gt;&lt;/u&gt;&lt;/font&gt;)" style="text;html=1;strokeColor=none;fillColor=none;align=center;verticalAlign=middle;whiteSpace=wrap;rounded=0;" vertex="1" parent="1">
          <mxGeometry x="-350" y="455" width="630" height="30" as="geometry" />
        </mxCell>
        <mxCell id="VXjHwAnfuh55Wv1e9_JL-63" value="MATERIA(&lt;font style=&quot;&quot; color=&quot;#ff1919&quot;&gt;&lt;u&gt;codMateria,&lt;/u&gt;&lt;i style=&quot;&quot;&gt;&amp;nbsp;nombreCentro, codProfesor&lt;/i&gt;&lt;/font&gt;)" style="text;html=1;strokeColor=none;fillColor=none;align=center;verticalAlign=middle;whiteSpace=wrap;rounded=0;" vertex="1" parent="1">
          <mxGeometry x="-350" y="365" width="630" height="30" as="geometry" />
        </mxCell>
        <mxCell id="VXjHwAnfuh55Wv1e9_JL-67" value="CENTRO(&lt;u style=&quot;color: rgb(255, 25, 25);&quot;&gt;nombreCentro&lt;/u&gt;&lt;u style=&quot;color: rgb(255, 25, 25); font-style: italic;&quot;&gt;,&lt;/u&gt; nºAlumnos, presupuestoAnual, tipo)" style="text;html=1;strokeColor=none;fillColor=none;align=center;verticalAlign=middle;whiteSpace=wrap;rounded=0;" vertex="1" parent="1">
          <mxGeometry x="-350" y="550" width="630" height="30" as="geometry" />
        </mxCell>
        <mxCell id="VXjHwAnfuh55Wv1e9_JL-70" value="" style="endArrow=classic;html=1;rounded=0;exitX=0.5;exitY=0;exitDx=0;exitDy=0;" edge="1" parent="1" source="VXjHwAnfuh55Wv1e9_JL-59">
          <mxGeometry width="50" height="50" relative="1" as="geometry">
            <mxPoint x="300" y="430" as="sourcePoint" />
            <mxPoint x="-220" y="190" as="targetPoint" />
            <Array as="points">
              <mxPoint x="-45" y="230" />
              <mxPoint x="-250" y="230" />
              <mxPoint x="-250" y="190" />
            </Array>
          </mxGeometry>
        </mxCell>
        <mxCell id="VXjHwAnfuh55Wv1e9_JL-71" value="" style="endArrow=classic;html=1;rounded=0;exitX=0.603;exitY=-0.033;exitDx=0;exitDy=0;exitPerimeter=0;" edge="1" parent="1">
          <mxGeometry width="50" height="50" relative="1" as="geometry">
            <mxPoint x="19.889999999999873" y="271.01" as="sourcePoint" />
            <mxPoint x="-180" y="390" as="targetPoint" />
            <Array as="points">
              <mxPoint x="20" y="230" />
              <mxPoint x="180" y="230" />
              <mxPoint x="180" y="310" />
              <mxPoint x="-250" y="310" />
              <mxPoint x="-250" y="390" />
            </Array>
          </mxGeometry>
        </mxCell>
        <mxCell id="VXjHwAnfuh55Wv1e9_JL-72" value="" style="endArrow=classic;html=1;rounded=0;exitX=0.519;exitY=0.067;exitDx=0;exitDy=0;exitPerimeter=0;entryX=0.201;entryY=0.084;entryDx=0;entryDy=0;entryPerimeter=0;" edge="1" parent="1" source="VXjHwAnfuh55Wv1e9_JL-61" target="VXjHwAnfuh55Wv1e9_JL-58">
          <mxGeometry width="50" height="50" relative="1" as="geometry">
            <mxPoint x="300" y="430" as="sourcePoint" />
            <mxPoint x="350" y="380" as="targetPoint" />
            <Array as="points">
              <mxPoint x="-23" y="440" />
              <mxPoint x="-320" y="440" />
              <mxPoint x="-320" y="168" />
            </Array>
          </mxGeometry>
        </mxCell>
        <mxCell id="VXjHwAnfuh55Wv1e9_JL-73" value="" style="endArrow=classic;html=1;rounded=0;exitX=0.667;exitY=0.067;exitDx=0;exitDy=0;exitPerimeter=0;entryX=0.206;entryY=0.5;entryDx=0;entryDy=0;entryPerimeter=0;" edge="1" parent="1" source="VXjHwAnfuh55Wv1e9_JL-63" target="VXjHwAnfuh55Wv1e9_JL-58">
          <mxGeometry width="50" height="50" relative="1" as="geometry">
            <mxPoint x="280" y="410" as="sourcePoint" />
            <mxPoint x="330" y="360" as="targetPoint" />
            <Array as="points">
              <mxPoint x="70" y="350" />
              <mxPoint x="150" y="350" />
              <mxPoint x="150" y="410" />
              <mxPoint x="-290" y="410" />
              <mxPoint x="-290" y="180" />
            </Array>
          </mxGeometry>
        </mxCell>
        <mxCell id="VXjHwAnfuh55Wv1e9_JL-74" value="" style="endArrow=classic;html=1;rounded=0;exitX=0.619;exitY=-0.1;exitDx=0;exitDy=0;exitPerimeter=0;" edge="1" parent="1" source="VXjHwAnfuh55Wv1e9_JL-61">
          <mxGeometry width="50" height="50" relative="1" as="geometry">
            <mxPoint x="430" y="480" as="sourcePoint" />
            <mxPoint x="-210" y="550" as="targetPoint" />
            <Array as="points">
              <mxPoint x="40" y="440" />
              <mxPoint x="200" y="440" />
              <mxPoint x="200" y="520" />
              <mxPoint x="-240" y="520" />
              <mxPoint x="-240" y="550" />
            </Array>
          </mxGeometry>
        </mxCell>
        <mxCell id="VXjHwAnfuh55Wv1e9_JL-75" value="TIENE(&lt;u style=&quot;color: rgb(255, 25, 25); font-style: italic;&quot;&gt;codMateria, nombreCentro&lt;/u&gt;&lt;i&gt;&amp;nbsp;&lt;/i&gt;)" style="text;html=1;strokeColor=none;fillColor=none;align=center;verticalAlign=middle;whiteSpace=wrap;rounded=0;" vertex="1" parent="1">
          <mxGeometry x="-360" y="645" width="630" height="30" as="geometry" />
        </mxCell>
        <mxCell id="VXjHwAnfuh55Wv1e9_JL-76" value="" style="endArrow=classic;html=1;rounded=0;exitX=0.475;exitY=0;exitDx=0;exitDy=0;exitPerimeter=0;" edge="1" parent="1" source="VXjHwAnfuh55Wv1e9_JL-75">
          <mxGeometry width="50" height="50" relative="1" as="geometry">
            <mxPoint x="400" y="520" as="sourcePoint" />
            <mxPoint x="-180" y="380" as="targetPoint" />
            <Array as="points">
              <mxPoint x="-61" y="610" />
              <mxPoint x="220" y="610" />
              <mxPoint x="220" y="320" />
              <mxPoint x="-220" y="320" />
              <mxPoint x="-220" y="380" />
            </Array>
          </mxGeometry>
        </mxCell>
        <mxCell id="VXjHwAnfuh55Wv1e9_JL-77" value="" style="endArrow=classic;html=1;rounded=0;exitX=0.583;exitY=0.067;exitDx=0;exitDy=0;exitPerimeter=0;entryX=0.222;entryY=1.333;entryDx=0;entryDy=0;entryPerimeter=0;" edge="1" parent="1" source="VXjHwAnfuh55Wv1e9_JL-75" target="VXjHwAnfuh55Wv1e9_JL-67">
          <mxGeometry width="50" height="50" relative="1" as="geometry">
            <mxPoint x="400" y="520" as="sourcePoint" />
            <mxPoint x="-210" y="570" as="targetPoint" />
            <Array as="points">
              <mxPoint x="7" y="620" />
              <mxPoint x="220" y="620" />
              <mxPoint x="220" y="690" />
              <mxPoint x="-240" y="690" />
              <mxPoint x="-240" y="590" />
            </Array>
          </mxGeometry>
        </mxCell>
        <mxCell id="VXjHwAnfuh55Wv1e9_JL-78" value="PRIVADO(&lt;font color=&quot;#ff1919&quot;&gt;&lt;u&gt;nombreCentro&lt;/u&gt;&lt;/font&gt;,organizacion, cuota)" style="text;html=1;strokeColor=none;fillColor=none;align=center;verticalAlign=middle;whiteSpace=wrap;rounded=0;" vertex="1" parent="1">
          <mxGeometry x="-360" y="750" width="630" height="30" as="geometry" />
        </mxCell>
        <mxCell id="VXjHwAnfuh55Wv1e9_JL-79" value="" style="endArrow=classic;html=1;rounded=0;exitX=0.46;exitY=0;exitDx=0;exitDy=0;exitPerimeter=0;entryX=0.222;entryY=0.667;entryDx=0;entryDy=0;entryPerimeter=0;" edge="1" parent="1" source="VXjHwAnfuh55Wv1e9_JL-78" target="VXjHwAnfuh55Wv1e9_JL-67">
          <mxGeometry width="50" height="50" relative="1" as="geometry">
            <mxPoint x="90" y="570" as="sourcePoint" />
            <mxPoint x="140" y="520" as="targetPoint" />
            <Array as="points">
              <mxPoint x="-70" y="730" />
              <mxPoint x="-290" y="730" />
              <mxPoint x="-290" y="570" />
            </Array>
          </mxGeometry>
        </mxCell>
        <mxCell id="VXjHwAnfuh55Wv1e9_JL-80" value="PUBLICO(&lt;font color=&quot;#ff1919&quot;&gt;&lt;u&gt;nombreCentro&lt;/u&gt;&lt;/font&gt;,presupuesto, servicios)" style="text;html=1;strokeColor=none;fillColor=none;align=center;verticalAlign=middle;whiteSpace=wrap;rounded=0;" vertex="1" parent="1">
          <mxGeometry x="-360" y="860" width="630" height="30" as="geometry" />
        </mxCell>
        <mxCell id="VXjHwAnfuh55Wv1e9_JL-81" value="" style="endArrow=classic;html=1;rounded=0;exitX=0.444;exitY=0.033;exitDx=0;exitDy=0;exitPerimeter=0;entryX=0.222;entryY=0.333;entryDx=0;entryDy=0;entryPerimeter=0;" edge="1" parent="1" source="VXjHwAnfuh55Wv1e9_JL-80" target="VXjHwAnfuh55Wv1e9_JL-67">
          <mxGeometry width="50" height="50" relative="1" as="geometry">
            <mxPoint x="130" y="710" as="sourcePoint" />
            <mxPoint x="180" y="660" as="targetPoint" />
            <Array as="points">
              <mxPoint x="-80" y="840" />
              <mxPoint x="-330" y="840" />
              <mxPoint x="-330" y="560" />
            </Array>
          </mxGeometry>
        </mxCell>
      </root>
    </mxGraphModel>
  </diagram>
</mxfile>
